<svg width="32" height="32" viewBox="0 0 32 32" fill="none" xmlns="http://www.w3.org/2000/svg">
<rect width="32" height="32" rx="4" fill="white"/>
<path d="M16.5 3L17.4468 2.6781C17.3089 2.27266 16.9282 2 16.5 2C16.0718 2 15.6911 2.27266 15.5532 2.6781L16.5 3ZM7.05323 27.6781C6.87545 28.201 7.15521 28.769 7.6781 28.9468C8.20099 29.1246 8.76899 28.8448 8.94677 28.3219L7.05323 27.6781ZM24.0532 28.3219C24.231 28.8448 24.799 29.1246 25.3219 28.9468C25.8448 28.769 26.1246 28.201 25.9468 27.6781L24.0532 28.3219ZM15.5 28V29H17.5V28H15.5ZM15.5532 2.6781L9.98426 19.0574L11.8778 19.7012L17.4468 3.3219L15.5532 2.6781ZM9.98426 19.0574L7.05323 27.6781L8.94677 28.3219L11.8778 19.7012L9.98426 19.0574ZM15.5532 3.3219L21.1222 19.7012L23.0157 19.0574L17.4468 2.6781L15.5532 3.3219ZM21.1222 19.7012L24.0532 28.3219L25.9468 27.6781L23.0157 19.0574L21.1222 19.7012ZM10.931 20.3793H16.5V18.3793H10.931V20.3793ZM16.5 20.3793H22.069V18.3793H16.5V20.3793ZM15.5 19.3793V28H17.5V19.3793H15.5Z" fill="#282828"/>
</svg>
